<svg width="48" height="48" viewBox="0 0 48 48" fill="none" xmlns="http://www.w3.org/2000/svg">
<rect width="48" height="48" rx="6" fill="#F6F8F6"/>
<path d="M19.1291 28.8611H21.0736V24H19.1291V28.8611ZM26.9069 28.8611H28.8513V19.1389H26.9069V28.8611ZM23.018 28.8611H24.9625V25.9444H23.018V28.8611ZM23.018 24H24.9625V22.0556H23.018V24ZM17.1847 32.75C16.65 32.75 16.1922 32.5596 15.8114 32.1788C15.4306 31.798 15.2402 31.3403 15.2402 30.8056V17.1944C15.2402 16.6597 15.4306 16.202 15.8114 15.8212C16.1922 15.4404 16.65 15.25 17.1847 15.25H30.7958C31.3305 15.25 31.7883 15.4404 32.1691 15.8212C32.5498 16.202 32.7402 16.6597 32.7402 17.1944V30.8056C32.7402 31.3403 32.5498 31.798 32.1691 32.1788C31.7883 32.5596 31.3305 32.75 30.7958 32.75H17.1847ZM17.1847 30.8056H30.7958V17.1944H17.1847V30.8056Z" fill="#379C8A"/>
</svg>
