<svg width="48" height="48" viewBox="0 0 48 48" fill="none" xmlns="http://www.w3.org/2000/svg">
<rect width="48" height="48" rx="6" fill="#F6F8F6"/>
<path d="M13.2959 31.7778V27.8889C13.2959 27.338 13.4863 26.8762 13.8671 26.5035C14.2479 26.1308 14.7056 25.9445 15.2403 25.9445H18.4244C18.7484 25.9445 19.0563 26.0255 19.348 26.1876C19.6396 26.3496 19.8746 26.5683 20.0528 26.8438C20.5228 27.4757 21.102 27.97 21.7907 28.3264C22.4793 28.6829 23.2126 28.8612 23.9903 28.8612C24.7843 28.8612 25.5256 28.6829 26.2143 28.3264C26.903 27.97 27.4741 27.4757 27.9278 26.8438C28.1385 26.5683 28.3856 26.3496 28.6692 26.1876C28.9527 26.0255 29.2484 25.9445 29.5563 25.9445H32.7403C33.2913 25.9445 33.7531 26.1308 34.1258 26.5035C34.4984 26.8762 34.6848 27.338 34.6848 27.8889V31.7778H27.8792V29.566C27.3121 29.9711 26.7004 30.279 26.0442 30.4896C25.3879 30.7003 24.7033 30.8056 23.9903 30.8056C23.2936 30.8056 22.613 30.6962 21.9487 30.4775C21.2843 30.2587 20.6686 29.9468 20.1015 29.5417V31.7778H13.2959ZM23.9903 27.8889C23.3746 27.8889 22.7913 27.7472 22.2403 27.4636C21.6894 27.18 21.2276 26.7871 20.8549 26.2848C20.5795 25.8797 20.2351 25.5597 19.8219 25.3247C19.4087 25.0898 18.9591 24.9723 18.473 24.9723C18.8295 24.3727 19.5829 23.8988 20.7334 23.5504C21.8839 23.202 22.9695 23.0278 23.9903 23.0278C25.0112 23.0278 26.0968 23.202 27.2473 23.5504C28.3978 23.8988 29.1512 24.3727 29.5077 24.9723C29.0378 24.9723 28.5922 25.0898 28.1709 25.3247C27.7496 25.5597 27.4012 25.8797 27.1258 26.2848C26.7693 26.8033 26.3156 27.2003 25.7646 27.4757C25.2137 27.7512 24.6223 27.8889 23.9903 27.8889ZM16.2126 24.9723C15.4024 24.9723 14.7137 24.6887 14.1466 24.1216C13.5795 23.5545 13.2959 22.8658 13.2959 22.0556C13.2959 21.2292 13.5795 20.5365 14.1466 19.9775C14.7137 19.4185 15.4024 19.1389 16.2126 19.1389C17.039 19.1389 17.7317 19.4185 18.2907 19.9775C18.8497 20.5365 19.1292 21.2292 19.1292 22.0556C19.1292 22.8658 18.8497 23.5545 18.2907 24.1216C17.7317 24.6887 17.039 24.9723 16.2126 24.9723ZM31.7681 24.9723C30.9579 24.9723 30.2693 24.6887 29.7021 24.1216C29.135 23.5545 28.8515 22.8658 28.8515 22.0556C28.8515 21.2292 29.135 20.5365 29.7021 19.9775C30.2693 19.4185 30.9579 19.1389 31.7681 19.1389C32.5945 19.1389 33.2872 19.4185 33.8462 19.9775C34.4053 20.5365 34.6848 21.2292 34.6848 22.0556C34.6848 22.8658 34.4053 23.5545 33.8462 24.1216C33.2872 24.6887 32.5945 24.9723 31.7681 24.9723ZM23.9903 22.0556C23.1802 22.0556 22.4915 21.772 21.9244 21.2049C21.3572 20.6378 21.0737 19.9491 21.0737 19.1389C21.0737 18.3126 21.3572 17.6198 21.9244 17.0608C22.4915 16.5018 23.1802 16.2223 23.9903 16.2223C24.8167 16.2223 25.5094 16.5018 26.0685 17.0608C26.6275 17.6198 26.907 18.3126 26.907 19.1389C26.907 19.9491 26.6275 20.6378 26.0685 21.2049C25.5094 21.772 24.8167 22.0556 23.9903 22.0556Z" fill="#379C8A"/>
</svg>
