<svg width="64" height="64" viewBox="0 0 64 64" fill="none" xmlns="http://www.w3.org/2000/svg">
<rect width="64" height="64" rx="8" fill="#379C8A" fill-opacity="0.1"/>
<path d="M21.9688 43.25V39.5H25.8438L22.6562 29.0625C22.0938 28.75 21.6302 28.2917 21.2656 27.6875C20.901 27.0833 20.7188 26.4375 20.7188 25.75C20.7188 24.7083 21.0833 23.8229 21.8125 23.0938C22.5417 22.3646 23.4271 22 24.4688 22C25.2812 22 26.0052 22.2344 26.6406 22.7031C27.276 23.1719 27.7188 23.7708 27.9688 24.5H31.9688V23.25C31.9688 22.8958 32.0885 22.599 32.3281 22.3594C32.5677 22.1198 32.8646 22 33.2188 22C33.4062 22 33.5885 22.0417 33.7656 22.125C33.9427 22.2083 34.0938 22.3333 34.2188 22.5L36.3438 20.5C36.5312 20.3125 36.7552 20.1927 37.0156 20.1406C37.276 20.0885 37.5312 20.125 37.7812 20.25L42.6562 22.5C42.9062 22.625 43.0781 22.8073 43.1719 23.0469C43.2656 23.2865 43.2604 23.5208 43.1562 23.75C43.0312 24 42.849 24.1615 42.6094 24.2344C42.3698 24.3073 42.1354 24.2917 41.9062 24.1875L37.4062 22.125L34.4688 24.875V26.625L37.4062 29.3125L41.9062 27.25C42.1354 27.1458 42.375 27.1354 42.625 27.2188C42.875 27.3021 43.0521 27.4583 43.1562 27.6875C43.2812 27.9375 43.2917 28.1771 43.1875 28.4062C43.0833 28.6354 42.9062 28.8125 42.6562 28.9375L37.7812 31.25C37.5312 31.375 37.276 31.4115 37.0156 31.3594C36.7552 31.3073 36.5312 31.1875 36.3438 31L34.2188 29C34.0938 29.125 33.9427 29.2396 33.7656 29.3438C33.5885 29.4479 33.4062 29.5 33.2188 29.5C32.8646 29.5 32.5677 29.3802 32.3281 29.1406C32.0885 28.901 31.9688 28.6042 31.9688 28.25V27H27.9688C27.9062 27.1667 27.8385 27.3229 27.7656 27.4688C27.6927 27.6146 27.5938 27.7708 27.4688 27.9375L33.7188 39.5H38.2188V43.25H21.9688ZM24.4688 27C24.8229 27 25.1198 26.8802 25.3594 26.6406C25.599 26.401 25.7188 26.1042 25.7188 25.75C25.7188 25.3958 25.599 25.099 25.3594 24.8594C25.1198 24.6198 24.8229 24.5 24.4688 24.5C24.1146 24.5 23.8177 24.6198 23.5781 24.8594C23.3385 25.099 23.2188 25.3958 23.2188 25.75C23.2188 26.1042 23.3385 26.401 23.5781 26.6406C23.8177 26.8802 24.1146 27 24.4688 27ZM28.4062 39.5H30.8438L25.4688 29.5C25.4688 29.5 25.4479 29.5 25.4062 29.5C25.3646 29.5 25.3438 29.5 25.3438 29.5L28.4062 39.5Z" fill="#379C8A"/>
</svg>
