<svg width="64" height="64" viewBox="0 0 64 64" fill="none" xmlns="http://www.w3.org/2000/svg">
<rect width="64" height="64" rx="8" fill="#379C8A" fill-opacity="0.1"/>
<path d="M32 44.5C30.2917 44.5 28.6771 44.1719 27.1562 43.5156C25.6354 42.8594 24.3073 41.9635 23.1719 40.8281C22.0365 39.6927 21.1406 38.3646 20.4844 36.8438C19.8281 35.3229 19.5 33.7083 19.5 32C19.5 30.2708 19.8281 28.651 20.4844 27.1406C21.1406 25.6302 22.0365 24.3073 23.1719 23.1719C24.3073 22.0365 25.6354 21.1406 27.1562 20.4844C28.6771 19.8281 30.2917 19.5 32 19.5C33.7292 19.5 35.349 19.8281 36.8594 20.4844C38.3698 21.1406 39.6927 22.0365 40.8281 23.1719C41.9635 24.3073 42.8594 25.6302 43.5156 27.1406C44.1719 28.651 44.5 30.2708 44.5 32C44.5 33.7083 44.1719 35.3229 43.5156 36.8438C42.8594 38.3646 41.9635 39.6927 40.8281 40.8281C39.6927 41.9635 38.3698 42.8594 36.8594 43.5156C35.349 44.1719 33.7292 44.5 32 44.5ZM32 41.9375C32.5417 41.1875 33.0104 40.4062 33.4062 39.5938C33.8021 38.7812 34.125 37.9167 34.375 37H29.625C29.875 37.9167 30.1979 38.7812 30.5938 39.5938C30.9896 40.4062 31.4583 41.1875 32 41.9375ZM28.75 41.4375C28.375 40.75 28.0469 40.0365 27.7656 39.2969C27.4844 38.5573 27.25 37.7917 27.0625 37H23.375C23.9792 38.0417 24.7344 38.9479 25.6406 39.7188C26.5469 40.4896 27.5833 41.0625 28.75 41.4375ZM35.25 41.4375C36.4167 41.0625 37.4531 40.4896 38.3594 39.7188C39.2656 38.9479 40.0208 38.0417 40.625 37H36.9375C36.75 37.7917 36.5156 38.5573 36.2344 39.2969C35.9531 40.0365 35.625 40.75 35.25 41.4375ZM22.3125 34.5H26.5625C26.5 34.0833 26.4531 33.6719 26.4219 33.2656C26.3906 32.8594 26.375 32.4375 26.375 32C26.375 31.5625 26.3906 31.1406 26.4219 30.7344C26.4531 30.3281 26.5 29.9167 26.5625 29.5H22.3125C22.2083 29.9167 22.1302 30.3281 22.0781 30.7344C22.026 31.1406 22 31.5625 22 32C22 32.4375 22.026 32.8594 22.0781 33.2656C22.1302 33.6719 22.2083 34.0833 22.3125 34.5ZM29.0625 34.5H34.9375C35 34.0833 35.0469 33.6719 35.0781 33.2656C35.1094 32.8594 35.125 32.4375 35.125 32C35.125 31.5625 35.1094 31.1406 35.0781 30.7344C35.0469 30.3281 35 29.9167 34.9375 29.5H29.0625C29 29.9167 28.9531 30.3281 28.9219 30.7344C28.8906 31.1406 28.875 31.5625 28.875 32C28.875 32.4375 28.8906 32.8594 28.9219 33.2656C28.9531 33.6719 29 34.0833 29.0625 34.5ZM37.4375 34.5H41.6875C41.7917 34.0833 41.8698 33.6719 41.9219 33.2656C41.974 32.8594 42 32.4375 42 32C42 31.5625 41.974 31.1406 41.9219 30.7344C41.8698 30.3281 41.7917 29.9167 41.6875 29.5H37.4375C37.5 29.9167 37.5469 30.3281 37.5781 30.7344C37.6094 31.1406 37.625 31.5625 37.625 32C37.625 32.4375 37.6094 32.8594 37.5781 33.2656C37.5469 33.6719 37.5 34.0833 37.4375 34.5ZM36.9375 27H40.625C40.0208 25.9583 39.2656 25.0521 38.3594 24.2812C37.4531 23.5104 36.4167 22.9375 35.25 22.5625C35.625 23.25 35.9531 23.9635 36.2344 24.7031C36.5156 25.4427 36.75 26.2083 36.9375 27ZM29.625 27H34.375C34.125 26.0833 33.8021 25.2188 33.4062 24.4062C33.0104 23.5938 32.5417 22.8125 32 22.0625C31.4583 22.8125 30.9896 23.5938 30.5938 24.4062C30.1979 25.2188 29.875 26.0833 29.625 27ZM23.375 27H27.0625C27.25 26.2083 27.4844 25.4427 27.7656 24.7031C28.0469 23.9635 28.375 23.25 28.75 22.5625C27.5833 22.9375 26.5469 23.5104 25.6406 24.2812C24.7344 25.0521 23.9792 25.9583 23.375 27Z" fill="#379C8A"/>
</svg>
