<svg width="64" height="64" viewBox="0 0 64 64" fill="none" xmlns="http://www.w3.org/2000/svg">
<rect width="64" height="64" rx="8" fill="#379C8A" fill-opacity="0.1"/>
<path d="M28.25 32.625H29.5V30.125H30.75C31.1042 30.125 31.401 30.0052 31.6406 29.7656C31.8802 29.526 32 29.2292 32 28.875V27.625C32 27.2708 31.8802 26.974 31.6406 26.7344C31.401 26.4948 31.1042 26.375 30.75 26.375H28.25V32.625ZM29.5 28.875V27.625H30.75V28.875H29.5ZM33.25 32.625H35.75C36.1042 32.625 36.401 32.5052 36.6406 32.2656C36.8802 32.026 37 31.7292 37 31.375V27.625C37 27.2708 36.8802 26.974 36.6406 26.7344C36.401 26.4948 36.1042 26.375 35.75 26.375H33.25V32.625ZM34.5 31.375V27.625H35.75V31.375H34.5ZM38.25 32.625H39.5V30.125H40.75V28.875H39.5V27.625H40.75V26.375H38.25V32.625ZM27 39.5C26.3125 39.5 25.724 39.2552 25.2344 38.7656C24.7448 38.276 24.5 37.6875 24.5 37V22C24.5 21.3125 24.7448 20.724 25.2344 20.2344C25.724 19.7448 26.3125 19.5 27 19.5H42C42.6875 19.5 43.276 19.7448 43.7656 20.2344C44.2552 20.724 44.5 21.3125 44.5 22V37C44.5 37.6875 44.2552 38.276 43.7656 38.7656C43.276 39.2552 42.6875 39.5 42 39.5H27ZM27 37H42V22H27V37ZM22 44.5C21.3125 44.5 20.724 44.2552 20.2344 43.7656C19.7448 43.276 19.5 42.6875 19.5 42V24.5H22V42H39.5V44.5H22Z" fill="#379C8A"/>
</svg>
