<svg width="40" height="40" viewBox="0 0 40 40" fill="none" xmlns="http://www.w3.org/2000/svg">
<rect width="40" height="40" rx="20" fill="#F1F5F9"/>
<path d="M29.9608 13.8083C29.2121 14.138 28.4188 14.3556 27.6067 14.4542C28.4618 13.9402 29.102 13.1342 29.4092 12.185C28.6167 12.6475 27.7383 12.9842 26.8033 13.1717C26.1865 12.512 25.3691 12.0745 24.478 11.9271C23.587 11.7796 22.6722 11.9305 21.8758 12.3563C21.0793 12.7821 20.4457 13.4589 20.0734 14.2818C19.701 15.1046 19.6108 16.0273 19.8167 16.9067C16.4083 16.7458 13.3892 15.1083 11.3667 12.635C10.999 13.2598 10.8072 13.9725 10.8117 14.6975C10.8117 16.1225 11.5367 17.375 12.635 18.1108C11.984 18.0901 11.3475 17.9141 10.7783 17.5975V17.6475C10.7755 18.5963 11.1016 19.5169 11.7012 20.2523C12.3007 20.9877 13.1367 21.4925 14.0667 21.6808C13.4652 21.842 12.8353 21.8662 12.2233 21.7517C12.4868 22.5667 12.9981 23.2791 13.6858 23.7896C14.3736 24.3 15.2036 24.5831 16.06 24.5992C14.6096 25.7374 12.8187 26.3552 10.975 26.3533C10.65 26.3533 10.3258 26.3342 10 26.2975C11.8798 27.5011 14.0654 28.14 16.2975 28.1383C23.8417 28.1383 27.9625 21.8917 27.9625 16.4842C27.9625 16.3092 27.9625 16.1342 27.95 15.9592C28.756 15.3767 29.4504 14.6537 30 13.825L29.9608 13.8083Z" fill="#475569"/>
</svg>
